<?xml version="1.0" encoding="UTF-8"?>
<svg xmlns="http://www.w3.org/2000/svg" xmlns:xlink="http://www.w3.org/1999/xlink" width="75px" height="74px" viewBox="0 0 74 74" version="1.1">
<g id="surface1">
<path style=" stroke:none;fill-rule:nonzero;fill:rgb(0%,0%,0%);fill-opacity:1;" d="M 3.003906 27.300781 L 3.003906 52.113281 L 6.558594 54.242188 L 10.125 56.375 L 10.257812 15.851562 L 11.5625 16.542969 C 13.378906 17.507812 15.535156 18.726562 21.949219 22.429688 C 25.007812 24.191406 31.617188 28 36.648438 30.898438 C 41.675781 33.785156 46.539062 36.601562 47.464844 37.144531 L 49.125 38.136719 L 49.125 42.980469 L 51.515625 44.34375 C 55.121094 46.410156 56.585938 47.242188 56.648438 47.242188 C 56.675781 47.242188 56.703125 44.1875 56.703125 40.441406 L 56.703125 33.640625 L 54.453125 32.355469 C 51.789062 30.832031 45.0625 26.863281 44.90625 26.730469 C 44.722656 26.570312 52.898438 21.476562 59.640625 17.546875 L 62.515625 15.878906 L 62.582031 36.125 L 62.648438 56.386719 L 63.953125 55.726562 C 64.671875 55.367188 66.410156 54.414062 67.808594 53.621094 L 70.355469 52.152344 L 70.394531 27.40625 C 70.40625 13.789062 70.382812 2.648438 70.34375 2.648438 C 70.300781 2.648438 68.667969 3.585938 66.722656 4.722656 C 64.761719 5.863281 61.875 7.554688 60.292969 8.46875 C 49.84375 14.582031 38.566406 21.09375 37.390625 21.6875 L 36.832031 21.980469 L 35.824219 21.425781 C 32.101562 19.375 4.324219 3.359375 3.320312 2.6875 L 3.003906 2.488281 Z M 3.003906 27.300781 "/>
<path style=" stroke:none;fill-rule:nonzero;fill:rgb(0%,0%,0%);fill-opacity:1;" d="M 22.914062 30.144531 C 21.988281 30.714844 20.667969 31.535156 19.988281 31.972656 C 19.308594 32.40625 18.238281 33.054688 17.613281 33.414062 L 16.476562 34.074219 L 16.460938 47.109375 L 16.460938 60.144531 L 21.007812 62.777344 C 23.503906 64.234375 28.023438 66.867188 31.054688 68.640625 C 34.097656 70.402344 36.621094 71.871094 36.671875 71.882812 C 36.738281 71.910156 41.351562 69.277344 46.941406 66.046875 L 57.09375 60.183594 L 57.09375 54.320312 L 53.082031 51.941406 C 50.863281 50.644531 46.5625 48.101562 43.507812 46.304688 C 40.449219 44.503906 37.601562 42.824219 37.183594 42.558594 C 36.75 42.292969 36.359375 42.082031 36.292969 42.082031 C 36.242188 42.082031 36.191406 44.160156 36.191406 46.699219 L 36.191406 51.316406 L 39.886719 53.304688 C 41.914062 54.402344 44.433594 55.765625 45.503906 56.347656 L 47.4375 57.40625 L 42.1875 60.316406 L 36.949219 63.226562 L 35.300781 62.277344 C 34.386719 61.746094 31.488281 60.078125 28.847656 58.570312 L 24.039062 55.816406 L 24.039062 38.640625 L 24.535156 38.285156 C 24.824219 38.070312 26.613281 36.933594 28.519531 35.730469 C 30.441406 34.527344 31.984375 33.480469 31.96875 33.414062 C 31.917969 33.253906 24.96875 29.113281 24.757812 29.113281 C 24.679688 29.113281 23.855469 29.578125 22.914062 30.144531 Z M 22.914062 30.144531 "/>
</g>
</svg>
